<?xml version="1.0" encoding="utf-8"?>
<!-- Generator: Adobe Illustrator 15.1.0, SVG Export Plug-In  -->
<!DOCTYPE svg PUBLIC "-//W3C//DTD SVG 1.1//EN" "http://www.w3.org/Graphics/SVG/1.1/DTD/svg11.dtd" [
	<!ENTITY ns_flows "http://ns.adobe.com/Flows/1.0/">
]>
<svg version="1.1"
	 xmlns="http://www.w3.org/2000/svg" xmlns:xlink="http://www.w3.org/1999/xlink" xmlns:a="http://ns.adobe.com/AdobeSVGViewerExtensions/3.0/"
	 x="0px" y="0px" width="512px" height="512px" viewBox="-117.125 -75.473 512 512"
	 enable-background="new -117.125 -75.473 512 512" xml:space="preserve">
<defs>
</defs>
<g>
	<defs>
		<rect id="SVGID_1_" width="277.686" height="360.99"/>
	</defs>
	<clipPath id="SVGID_2_">
		<use xlink:href="#SVGID_1_"  overflow="visible"/>
	</clipPath>
	<path clip-path="url(#SVGID_2_)" fill="#FFD65F" d="M257.371,145.553h-7.024v-32.87c0-60.791-48.244-111.576-108.544-112.662
		c-1.645-0.027-4.939-0.027-6.584,0C74.917,1.106,26.676,51.892,26.676,112.683v32.87H19.65C8.83,145.553,0,156.722,0,170.514
		v164.857c0,13.777,8.83,25.051,19.65,25.051h237.721c10.822,0,19.651-11.273,19.651-25.051V170.514
		C277.022,156.722,268.193,145.553,257.371,145.553L257.371,145.553z M160.783,252.775v49.814c0,5.705-4.776,10.527-10.485,10.527
		h-23.572c-5.71,0-10.485-4.822-10.485-10.527v-49.814c-5.536-5.453-8.761-12.986-8.761-21.322c0-15.795,12.21-29.375,27.739-29.998
		c1.646-0.068,4.94-0.068,6.584,0c15.531,0.623,27.741,14.203,27.741,29.998C169.544,239.789,166.317,247.322,160.783,252.775
		L160.783,252.775z M204.06,145.553H72.964v-32.87c0-36.21,29.428-66.157,65.546-66.157c36.117,0,65.55,29.947,65.55,66.157V145.553
		z M204.06,145.553"/>
</g>
</svg>
