<?xml version="1.0" encoding="utf-8"?>
<!-- Generator: Adobe Illustrator 15.1.0, SVG Export Plug-In  -->
<!DOCTYPE svg PUBLIC "-//W3C//DTD SVG 1.1//EN" "http://www.w3.org/Graphics/SVG/1.1/DTD/svg11.dtd" [
	<!ENTITY ns_flows "http://ns.adobe.com/Flows/1.0/">
]>
<svg version="1.1"
	 xmlns="http://www.w3.org/2000/svg" xmlns:xlink="http://www.w3.org/1999/xlink" xmlns:a="http://ns.adobe.com/AdobeSVGViewerExtensions/3.0/"
	 x="0px" y="0px" width="512px" height="512px" viewBox="0 0 512 512" enable-background="new 0 0 512 512" xml:space="preserve">
<defs>
</defs>
<rect fill="none" width="511.936" height="511.936"/>
<g>
	<defs>
		<rect id="SVGID_1_" x="3.144" y="73.804" width="505.713" height="364.393"/>
	</defs>
	<clipPath id="SVGID_2_">
		<use xlink:href="#SVGID_1_"  overflow="visible"/>
	</clipPath>
	<path clip-path="url(#SVGID_2_)" fill="#FAD7DE" d="M505.454,158.098c-4.363-2.905-10.244-1.733-13.185,2.63
		c-4.948,7.462-11.788,10.68-17.668,11.98c-0.031-11.052-5.383-22.625-15.223-32.434c-9.378-9.379-22.962-11.264-32.37-4.483
		c-6.99,5.04-12.53,16.272-5.012,31.285c4.674,9.367,13.275,16.833,23.795,21.228c-1.979,1.419-4.301,2.75-6.868,4.05
		c-5.693,2.85-11.54,4.552-17.174,5.542c-27.263-55.61-98.184-95.28-181.396-95.28c-16.608,0-31.93,1.087-46.229,2.94
		C170.329,90.149,126.14,71.177,81.922,74.121c2.046,18.38,13.34,41.987,27.854,59.009c-28.16,17.387-46.292,41.152-55.452,68.633
		c-10.71,4.704-22.283,7.698-35.209,8.572c-9.442,0.65-16.59,8.753-15.94,18.195c1.768,24.384,8.978,65.908,37.565,76.896
		c5.354,2.064,13.894,3.28,24.074,3.929c12.096,19.805,29.896,37.226,51.862,51.025c-3.683,18.352-8.232,36.878-13.833,55.576
		c-2.417,8.067,3.717,16.213,12.161,16.213h53.223c5.292,0,10.085-3.225,11.914-8.177c4.177-11.285,7.732-22.888,10.737-34.68
		c15.809,3.157,32.368,4.827,49.475,4.827c19.901,0,39.087-2.258,57.158-6.465c-2.353,9.375-4.891,18.812-7.704,28.281
		c-2.445,8.067,3.682,16.213,12.129,16.213h53.255c5.259,0,10.056-3.225,11.913-8.177c9.47-25.613,15.749-52.532,19.618-80.452
		c29.211-25.522,46.94-58.762,46.94-95.145c0-11.174-1.732-22.036-4.889-32.491c6.126-1.365,12.409-3.438,18.627-6.529
		c10.306-5.171,16.804-11.082,20.826-16.833c16.401-0.341,31.1-8.081,39.886-21.262
		C511.021,166.917,509.849,161.007,505.454,158.098L505.454,158.098z M126.299,204.023c-8.76,0-15.843-7.09-15.843-15.844
		c0-8.765,7.083-15.843,15.843-15.843c8.754,0,15.843,7.078,15.843,15.843C142.143,196.933,135.021,204.023,126.299,204.023
		L126.299,204.023z M292.345,222.059c-6.623,2.231-13.802-1.362-16.031-8.011c-1.639-4.862-7.766-10.551-19.679-10.551
		c-9.253,0-14.726,5.998-15.321,11.94c-0.769,7.365,5.94,13.274,17.921,15.785c28.684,5.999,39.732,26.055,37.938,43.227
		c-1.609,15.62-12.844,28.151-27.851,32.732v7.742c0,6.994-5.694,12.688-12.687,12.688c-6.993,0-12.661-5.693-12.661-12.688v-7.333
		c-17.386-4.029-27.536-15.812-31.036-26.333c-2.223-6.621,1.361-13.831,7.988-16.027c6.653-2.237,13.828,1.353,16.064,7.974
		c1.724,5.261,8.505,10.553,19.645,10.553c9.252,0,14.729-5.973,15.317-11.915c0.771-7.386-5.942-13.297-17.917-15.812
		c-28.685-5.994-39.736-26.019-37.937-43.192c1.609-15.623,12.842-28.155,27.845-32.766v-7.735c0-6.998,5.699-12.661,12.692-12.661
		c6.992,0,12.687,5.663,12.687,12.661v7.364c17.359,4.015,27.509,15.813,31.006,26.302
		C302.556,212.655,298.967,219.831,292.345,222.059L292.345,222.059z M438.985,158.597c-1.949-3.872-1.887-6.653-0.864-7.4
		c0.431-0.305,1.05-0.499,1.824-0.499c1.576,0,3.774,0.808,6.001,3.005c5.757,5.791,9.161,12.254,9.596,17.982
		C448.114,169.207,441.927,164.445,438.985,158.597L438.985,158.597z M438.985,158.597"/>
</g>
<path fill="#020202" d="M126.377,204.096c-8.757,0-15.843-7.094-15.843-15.843c0-8.765,7.086-15.843,15.843-15.843
	c8.756,0,15.843,7.078,15.843,15.843C142.22,197.002,135.103,204.096,126.377,204.096L126.377,204.096z"/>
<path fill="#FDDA02" d="M292.345,221.877c-6.623,2.236-13.802-1.361-16.031-8.007c-1.639-4.866-7.766-10.551-19.679-10.551
	c-9.249,0-14.726,5.995-15.314,11.937c-0.773,7.364,5.942,13.275,17.914,15.789c28.684,5.996,39.732,26.056,37.938,43.228
	c-1.609,15.62-12.844,28.151-27.851,32.73v7.745c0,6.993-5.694,12.687-12.687,12.687c-6.99,0-12.652-5.693-12.652-12.687v-7.334
	c-17.39-4.031-27.54-15.813-31.044-26.333c-2.22-6.621,1.361-13.831,7.991-16.029c6.654-2.234,13.825,1.354,16.068,7.977
	c1.717,5.261,8.502,10.55,19.638,10.55c9.252,0,14.729-5.971,15.317-11.913c0.771-7.385-5.942-13.296-17.913-15.811
	c-28.686-5.995-39.74-26.024-37.937-43.198c1.609-15.618,12.841-28.15,27.85-32.761v-7.736c0-6.993,5.693-12.656,12.683-12.656
	c6.992,0,12.687,5.663,12.687,12.656v7.364c17.359,4.015,27.509,15.813,31.006,26.302
	C302.556,212.478,298.967,219.649,292.345,221.877L292.345,221.877z"/>
</svg>
